<?xml version="1.0" encoding="utf-8"?>
<!-- Generator: Adobe Illustrator 28.3.0, SVG Export Plug-In . SVG Version: 6.00 Build 0)  -->
<svg version="1.1" id="Camada_1" xmlns="http://www.w3.org/2000/svg" xmlns:xlink="http://www.w3.org/1999/xlink" x="0px" y="0px"
	 viewBox="0 0 382.3 238.9" style="enable-background:new 0 0 382.3 238.9;" xml:space="preserve">
<style type="text/css">
	.st0{fill:#76BB6E;}
</style>
<g>
	<path class="st0" d="M27.5,63.1c9.4-11.1,24.3-26.3,38.8-29.6c6-1.4,9-8.1,5.9-13.4c-1.8-3.1-3.7-6.2-5.2-8.5
		c-1.6-2.4-4.3-3.8-7.2-3.6c-11.4,1-39.9,4.9-42,20l0.1,31.6C17.9,64.7,24.2,67,27.5,63.1z"/>
	<path class="st0" d="M359.2,63.2c-9.3-11.2-24.3-26.4-38.7-29.7c-6-1.4-9-8.1-5.9-13.4c1.8-3.1,3.8-6.2,5.2-8.5
		c1.6-2.4,4.4-3.8,7.3-3.5c11.4,1,39.9,5.1,41.9,20.1l-0.2,31.6C368.7,64.8,362.4,67.1,359.2,63.2z"/>
	<path class="st0" d="M193.8,16.5l-6.3-0.2c0,0-175.5-12.8-180.5,131.3C4.8,212.4,76.7,252.1,127.7,212c5.8-4.6,11.8-9.8,17.9-15.9
		v0c0,0,45.6-52.3,95.1,8.4c17.1,20.9,44.9,30.4,71.4,25.1c25.6-5.1,52.1-21.7,60.5-66.8C375,161.8,408.4,12.1,193.8,16.5z
		 M145.6,144.4c-5.5,5.6-14.3,5.6-19.8,0l-13.5-13.8l-13.9,14.1c-5.5,5.6-14.3,5.6-19.8,0c-5.5-5.6-5.5-14.6,0-20.1l13.9-14.1
		L79.2,97c-5.5-5.6-5.5-14.6,0-20.1c5.5-5.6,14.3-5.6,19.8,0l13.3,13.5l12.9-13.2c5.5-5.6,14.3-5.6,19.8,0s5.5,14.6,0,20.1
		L132,110.5l13.5,13.8C151,129.9,151,138.9,145.6,144.4z M246.4,121.4c-6.1,0-11-4.9-11-11c0-6.1,4.9-11,11-11c6.1,0,11,4.9,11,11
		C257.4,116.4,252.5,121.4,246.4,121.4z M274,73.6c6.1,0,11,4.9,11,11c0,6.1-4.9,11-11,11c-6.1,0-11-4.9-11-11
		C262.9,78.5,267.9,73.6,274,73.6z M274,150.1c-6.1,0-11-4.9-11-11c0-6.1,4.9-11,11-11c6.1,0,11,4.9,11,11
		C285,145.1,280.1,150.1,274,150.1z M301.5,121.4c-6.1,0-11-4.9-11-11c0-6.1,4.9-11,11-11c6.1,0,11,4.9,11,11
		C312.5,116.4,307.6,121.4,301.5,121.4z"/>
</g>
</svg>
