<?xml version="1.0" encoding="utf-8"?>
<!-- Generator: Adobe Illustrator 28.3.0, SVG Export Plug-In . SVG Version: 6.00 Build 0)  -->
<svg version="1.1" id="Camada_1" xmlns="http://www.w3.org/2000/svg" xmlns:xlink="http://www.w3.org/1999/xlink" x="0px" y="0px"
	 viewBox="0 0 280.3 372.9" style="enable-background:new 0 0 280.3 372.9;" xml:space="preserve">
<style type="text/css">
	.st0{fill:#0B0E12;}
	.st1{fill:#76BC6E;}
</style>
<image style="display:none;overflow:visible;" width="1108" height="1600" xlink:href="WhatsApp Image 2025-11-26 at 08.44.44.jpeg"  transform="matrix(0.3646 0 0 0.3646 -79 -97)">
</image>
<path class="st0" d="M50,13.7v34.6c0,2.6,2.1,4.7,4.7,4.7h45.8c2.6,0,4.7,2.1,4.7,4.7v47.6c0,2.6-2.1,4.7-4.7,4.7H89.1
	c-1.3,0-2.6-0.6-3.5-1.5l-62.9-69c-2.9-3.2-8.2-1.1-8.1,3.3l1.4,58.4c0,1.2,0.5,2.3,1.4,3.2l49.6,48.7L67,153v0h78.3
	c2.6,0,4.7-2.1,4.7-4.7v-4.8V110V53V24.6V13.7c0-2.6-2.1-4.7-4.7-4.7H54.7C52.1,9,50,11.1,50,13.7z"/>
<path class="st0" d="M18.8,115l46.1,45.8c0.7,0.6,1.1,1.5,1.1,2.4v124.3c0,1.9-1.8,3.5-3.9,3.5H15.9c-2.2,0-3.9-1.6-3.9-3.5V117.4
	C12,114.3,16.3,112.7,18.8,115z"/>
<path class="st0" d="M267.9,281.8c7.2-7.8,2.9-13.7,2.1-14.9l-8.5-12.2l-58.4-87.5c-0.5-0.8-1.3-1.2-2.2-1.2h-82.5H78.8h0
	c-1.5,0-2.8,1.3-2.8,3v172.4c0,2.7,3.1,4,4.8,2.1l36.9-42.6c0.5-0.6,0.7-1.3,0.7-2.1V215c0-1.7,1.2-3,2.8-3h58.3
	c0.9,0,1.7,0.4,2.2,1.2l33.4,50.3c0.8,1.2,2.9,5.5,0.7,8.8L172.1,323c-0.5,0.6-1.3,1-2,1h-34c-0.7,0-1.4,0.3-1.9,0.9l-34.9,37
	c-1.8,1.9-0.5,5.1,1.9,5.1h90.9v-0.6l0.5,0.5L267.9,281.8z"/>
<g>
	<path class="st1" d="M225.8,18.5c4.3,3.6,10.1,9.4,11.4,14.9c0.5,2.3,3.1,3.5,5.2,2.3c1.2-0.7,2.4-1.4,3.3-2
		c0.9-0.6,1.5-1.7,1.4-2.8c-0.4-4.4-1.9-15.4-7.7-16.2l-12.2,0C225.2,14.9,224.3,17.3,225.8,18.5z"/>
	<path class="st1" d="M225.9,146.5c4.2-3.7,10-9.5,11.1-15.1c0.5-2.3,3-3.5,5.1-2.4c1.2,0.7,2.4,1.4,3.3,1.9c1,0.6,1.5,1.6,1.4,2.8
		c-0.3,4.4-1.6,15.4-7.4,16.3l-12.2,0.2C225.3,150.1,224.4,147.7,225.9,146.5z"/>
	<path class="st1" d="M243.8,82.6l0.1-2.4c0,0,4.9-67.6-50.6-69.5c-25-0.9-40.2,26.8-24.8,46.5c1.8,2.2,3.8,4.5,6.1,6.9h0
		c0,0,20.1,17.5-3.2,36.6c-8.1,6.6-11.7,17.3-9.7,27.5c2,9.8,8.4,20.1,25.7,23.3C187.8,152.3,245.4,165.2,243.8,82.6z M194.5,64
		c-2.1-2.1-2.1-5.5,0-7.6l5.3-5.2l-5.4-5.4c-2.1-2.1-2.1-5.5,0-7.6c2.1-2.1,5.6-2.1,7.7,0l5.4,5.4l5.2-5.1c2.1-2.1,5.6-2.1,7.7,0
		s2.1,5.5,0,7.6l-5.2,5.1l5.1,5c2.1,2.1,2.1,5.5,0,7.6c-2.1,2.1-5.6,2.1-7.7,0l-5.1-5l-5.3,5.2C200.1,66.1,196.6,66.1,194.5,64z
		 M203.4,102.8c0-2.3,1.9-4.2,4.2-4.2c2.3,0,4.2,1.9,4.2,4.2c0,2.3-1.9,4.2-4.2,4.2C205.3,107.1,203.4,105.2,203.4,102.8z
		 M221.8,113.4c0,2.3-1.9,4.2-4.2,4.2c-2.3,0-4.2-1.9-4.2-4.2c0-2.3,1.9-4.2,4.2-4.2C219.9,109.2,221.8,111.1,221.8,113.4z
		 M192.3,113.5c0-2.3,1.9-4.2,4.2-4.2c2.3,0,4.2,1.9,4.2,4.2c0,2.3-1.9,4.2-4.2,4.2C194.2,117.7,192.3,115.8,192.3,113.5z
		 M203.4,124c0-2.3,1.9-4.2,4.2-4.2c2.3,0,4.2,1.9,4.2,4.2c0,2.3-1.9,4.2-4.2,4.2C205.3,128.3,203.4,126.4,203.4,124z"/>
</g>
</svg>
